# xmcd
#
# Track frame offsets: 
#        150
#        2910
#        14749
#        23299
#        36513
#        52521
#        67686
#        79815
#        83011
#        96080
#        108974
#        123632
#
# Disc length: 1771 seconds
#
# Revision: 0
# Processed by: cddbd v1.5.2PL0 Copyright (c) Steve Scherf et al.
# Submitted via: ExactAudioCopy v0.99pb4
#
DISCID=8306e90c
DTITLE=JERRY LEE LEWIS - Live At The International, Las vegas
DYEAR=1970
DGENRE=Rock
TTITLE0=Intro
TTITLE1=She Even Woke Me Up (To Say Goodbye)
TTITLE2=Jambalaya
TTITLE3=She Still Comes Around (To Love What's Left Of Me)
TTITLE4=Drinkin' Champagne
TTITLE5=San Antonio Rose
TTITLE6=Once More With Feeling
TTITLE7=Band Introduction
TTITLE8=When You Wore A Tulip (& I Wore A Big Red Rose)
TTITLE9=Take These Chains From My Heart
TTITLE10=Ballad Of Forty Dollars
TTITLE11=Flip, Flop And Fly
EXTD=
EXTT0=
EXTT1=
EXTT2=
EXTT3=
EXTT4=
EXTT5=
EXTT6=
EXTT7=
EXTT8=
EXTT9=
EXTT10=
EXTT11=
PLAYORDER=
